<?xml version="1.0" standalone="no"?>
<!DOCTYPE svg PUBLIC "-//W3C//DTD SVG 20010904//EN"
 "http://www.w3.org/TR/2001/REC-SVG-20010904/DTD/svg10.dtd">
<svg version="1.0" xmlns="http://www.w3.org/2000/svg"
 width="524.000000pt" height="524.000000pt" viewBox="0 0 524.000000 524.000000"
 preserveAspectRatio="xMidYMid meet">
<metadata>
Created by potrace 1.14, written by Peter Selinger 2001-2017
</metadata>
<g transform="translate(0.000000,524.000000) scale(0.100000,-0.100000)"
fill="#000000" stroke="none">
<path d="M2440 5123 c-569 -43 -1123 -294 -1539 -698 -403 -391 -651 -876
-738 -1445 -24 -161 -24 -539 0 -700 70 -455 254 -878 534 -1225 104 -129 300
-319 428 -416 341 -256 734 -420 1165 -486 162 -24 530 -25 690 0 544 84 1007
311 1389 682 403 392 651 876 738 1445 24 161 24 539 0 700 -66 431 -231 825
-486 1165 -97 128 -287 324 -416 428 -327 264 -733 448 -1150 521 -179 31
-429 43 -615 29z m1725 -3133 c-3 -5 -12 -10 -18 -10 -7 0 -6 4 3 10 19 12 23
12 15 0z m-1348 -722 c-3 -8 -6 -5 -6 6 -1 11 2 17 5 13 3 -3 4 -12 1 -19z"/>
</g>
</svg>
